PathFileType	4	(X/Y/Z)	TVC_36_BWA_06_walk_RCNL2025.trc
DataRate	CameraRate	NumFrames	NumMarkers	Units	OrigDataRate	OrigDataStartFrame	OrigNumFrames
100	100	12	27	mm	100	268	714
Frame#	Time	R_Shoulder			L_Shoulder			C7			J_Notch			R_Elbow			L_Elbow			R_Wrist			L_Wrist			R_Asis			L_Asis			R_Psis			L_Psis			Sacral			Thoracic			Sternum			R_Thigh_Lateral			R_Knee_Lateral			R_Shank_Lateral			R_Ankle_Lateral			R_Heel			R_Toe			L_Thigh_Lateral			L_Knee_Lateral			L_Shank_Lateral			L_Ankle_Lateral			L_Heel			L_Toe		
		X1	Y1	Z1	X2	Y2	Z2	X3	Y3	Z3	X4	Y4	Z4	X5	Y5	Z5	X6	Y6	Z6	X7	Y7	Z7	X8	Y8	Z8	X9	Y9	Z9	X10	Y10	Z10	X11	Y11	Z11	X12	Y12	Z12	X13	Y13	Z13	X14	Y14	Z14	X15	Y15	Z15	X16	Y16	Z16	X17	Y17	Z17	X18	Y18	Z18	X19	Y19	Z19	X20	Y20	Z20	X21	Y21	Z21	X22	Y22	Z22	X23	Y23	Z23	X24	Y24	Z24	X25	Y25	Z25	X26	Y26	Z26	X27	Y27	Z27
268	2.67000000	308.580017	1404.331055	583.121277	211.352219	1387.563354	246.936584	226.303894	1446.791626	427.859894	378.105225	1326.293823	394.580811	256.039459	1122.821045	690.119751	199.666763	1091.836060	146.370529	338.008408	913.406372	697.874359	386.061783	1011.138611	221.149155	342.038391	895.655823	507.305450	269.502899	920.110901	265.943909	169.607269	939.812683	490.265381	139.923431	939.062195	412.004700	154.765350	939.437439	451.135040	182.985626	1159.676636	443.729767	414.637695	1175.050293	367.304535	332.896393	637.740051	596.347534	357.018768	462.275543	504.316132	314.050476	264.012268	559.930054	290.284180	70.866409	491.965546	243.666245	56.955379	442.645386	414.044281	41.889496	463.059601	219.567139	690.171387	164.318268	231.219009	487.585114	197.602600	108.802567	317.478058	161.436066	89.312523	100.762627	202.781754	48.545494	96.386398	253.315018	208.797104	47.723858	217.994553
269	2.68000000	311.971130	1404.854736	584.914429	213.808533	1387.743164	248.947937	229.231339	1447.193726	429.813049	380.928680	1326.724121	396.220062	259.802399	1123.303467	691.462097	202.142120	1091.723145	149.260590	340.929916	913.684906	699.693115	387.837494	1010.871918	225.849899	345.765656	895.912109	509.314697	272.610657	920.912415	268.195831	173.413864	940.006897	492.816895	143.416107	939.306335	414.676910	158.414986	939.656616	453.746902	186.138397	1160.002197	446.213409	417.549194	1175.548706	368.960388	335.210815	637.761414	598.047302	357.985077	462.063660	505.618042	314.068604	263.780731	560.957275	290.310181	70.766853	492.308777	243.660400	57.037590	443.020355	414.027405	41.753803	463.276886	222.956848	691.763245	165.149597	235.816162	488.820435	196.879883	113.141319	319.410980	159.839249	92.388100	102.606247	200.618332	51.176662	98.770226	250.900116	211.069199	48.162117	216.664307
270	2.69000000	315.320343	1405.366333	586.673035	216.180496	1387.949341	250.935455	232.088882	1447.586670	431.738586	383.663971	1327.137329	397.808838	263.516602	1123.788696	692.820923	204.377548	1091.670898	152.089539	343.894272	913.975983	701.492493	389.460602	1010.677124	230.246078	349.325012	896.155518	511.281403	275.619965	921.744812	270.429138	177.110779	940.222717	495.323578	146.805405	939.572083	417.308807	161.958092	939.897400	456.316193	189.204346	1160.333862	448.682495	420.356842	1176.028809	370.559387	337.119141	637.715942	599.719543	358.732880	461.867065	506.965729	313.887482	263.549103	561.971497	290.305695	70.677132	492.629730	243.650070	57.104641	443.347260	414.000793	41.615490	463.499756	226.491302	693.381226	165.988190	240.502960	490.114594	196.177826	117.791443	321.266235	158.083923	96.059654	104.342766	198.177277	54.395306	100.923531	248.212219	214.040848	48.726673	214.926346
271	2.70000000	318.631592	1405.866821	588.399231	218.463577	1388.182007	252.902908	234.876587	1447.969604	433.640076	386.309784	1327.531616	399.348541	267.197418	1124.288574	694.218445	206.366577	1091.676270	154.861801	346.943115	914.299042	703.284760	390.937119	1010.549988	234.314857	352.687408	896.379395	513.194702	278.529816	922.604797	272.639526	180.689163	940.452209	497.775848	150.085495	939.851074	419.890137	165.387329	940.151642	458.832993	192.177963	1160.670776	451.134460	423.056305	1176.488159	372.101746	338.690430	637.607788	601.347046	359.290375	461.684326	508.339508	313.602509	263.343353	562.983093	290.275391	70.600197	492.930237	243.639252	57.160057	443.629700	413.965820	41.480179	463.725433	230.213501	695.008728	166.843460	245.313156	491.464752	195.514648	122.786636	323.023621	156.209167	100.403961	105.952675	195.490204	58.304962	102.798759	245.295700	217.824127	49.433594	212.740479
272	2.71000000	321.908325	1406.356567	590.094849	220.651398	1388.438965	254.854584	237.593964	1448.341064	435.520844	388.864410	1327.903931	400.840515	270.838257	1124.804443	695.669312	208.106339	1091.735107	157.579086	350.091187	914.661560	705.074554	392.274231	1010.485809	238.037720	355.839142	896.580444	515.047363	281.339386	923.487244	274.822113	184.141388	940.686157	500.164917	153.251083	940.133301	422.411407	168.696236	940.409729	461.288162	195.053741	1161.010864	453.566193	425.643372	1176.923340	373.588013	340.006744	637.446899	602.917969	359.693756	461.514648	509.721741	313.287079	263.182892	563.998596	290.224060	70.537674	493.216522	243.631409	57.207920	443.877441	413.923859	41.352432	463.956696	234.145203	696.632874	167.719528	250.275024	492.867981	194.901871	128.155121	324.666473	154.251678	105.488457	107.421021	192.588806	63.000317	104.356071	242.192383	222.517365	50.297600	210.079636
273	2.72000000	325.153412	1406.835449	591.761658	222.736496	1388.716064	256.795074	240.240005	1448.698853	437.383850	391.326141	1328.251221	402.286133	274.414734	1125.327637	697.180237	209.597397	1091.842163	160.240524	353.328766	915.059753	706.860229	393.479919	1010.479126	241.400566	358.783752	896.759338	516.836487	284.047791	924.385498	276.971741	187.461349	940.914246	502.483368	156.297668	940.407593	424.864166	171.879509	940.660919	463.673767	197.826416	1161.351074	455.974274	428.114105	1177.330688	375.019012	341.153717	637.246765	604.424988	359.984375	461.357422	511.096832	312.983337	263.075775	565.016724	290.156189	70.490097	493.496246	243.629074	57.252213	444.102966	413.875977	41.235611	464.199982	238.286224	698.244812	168.615143	255.411484	494.321289	194.343719	133.919403	326.182648	152.244492	111.368210	108.738426	189.504776	68.562874	105.566322	238.941193	228.199860	51.331573	206.933960
274	2.73000000	328.368927	1407.302612	593.401306	224.710983	1389.007324	258.729065	242.813354	1449.040405	439.231750	393.693085	1328.569946	403.686646	277.893433	1125.842896	698.750610	210.843430	1091.991577	162.843063	356.630997	915.482574	708.636108	394.562607	1010.524139	244.393654	361.542175	896.921021	518.563293	286.654083	925.291260	279.083038	190.644623	941.125671	504.725311	159.221710	940.661804	427.241241	174.933167	940.893738	465.983276	200.491119	1161.687622	458.354858	430.465057	1177.706421	376.395782	342.212555	637.022766	605.864136	360.205505	461.212128	512.450745	312.698303	263.015381	566.026184	290.075714	70.457253	493.775635	243.633484	57.296223	444.318481	413.823059	41.131893	464.463043	242.615936	699.839050	169.523666	260.740723	495.821594	193.837311	140.096405	327.565002	150.216217	118.083458	109.901970	186.269791	75.057274	106.413338	235.577972	234.927765	52.545990	203.313812
275	2.74000000	331.555878	1407.756470	595.015198	226.567352	1389.305908	260.660980	245.312424	1449.362427	441.066711	395.963562	1328.855957	405.043335	281.241241	1126.331909	700.373474	211.850952	1092.176514	165.381958	359.968460	915.916107	710.394806	395.530640	1010.614471	247.011650	364.151459	897.074524	520.232971	289.157379	926.194702	281.150604	193.688568	941.309509	506.886597	162.020676	940.883484	429.536926	177.854622	941.096497	468.211761	203.043625	1162.015625	460.703857	432.693237	1178.046509	377.719574	343.253601	636.790039	607.233826	360.399475	461.077850	513.770813	312.410339	262.981964	567.006470	289.986267	70.438087	494.058044	243.644424	57.342243	444.533447	413.765869	41.042454	464.752686	247.096970	701.412415	170.433777	266.276764	497.365967	193.373535	146.697906	328.811798	148.190384	125.657982	110.915604	182.915558	82.528496	106.895302	232.135422	242.731308	53.948288	199.251663
276	2.75000000	334.714142	1408.194214	596.604614	228.299042	1389.604370	262.594788	247.735489	1449.661377	442.890564	398.135986	1329.105469	406.357422	284.431915	1126.776245	702.036987	212.628998	1092.390259	167.851303	363.314728	916.346558	712.128845	396.391968	1010.743011	249.253532	366.662201	897.232727	521.853821	291.556854	927.085327	283.169159	196.592422	941.455078	508.964935	164.693176	941.059875	431.746948	180.642799	941.257477	470.355942	205.480408	1162.329834	463.017059	434.796509	1178.346436	378.991730	344.332489	636.562378	608.533630	360.604797	460.953217	515.045593	312.087677	262.950623	567.933167	289.891663	70.430519	494.343445	243.660339	57.391590	444.753174	413.705383	40.967762	465.073151	251.680359	702.962952	171.330658	272.030457	498.951752	192.938431	153.731155	329.926636	146.185242	134.098389	111.790070	179.473694	91.000099	107.025131	228.643036	251.613953	55.542271	194.802231
277	2.76000000	337.842194	1408.612549	598.170288	229.900955	1389.894653	264.533813	250.080750	1449.933716	444.704681	400.209198	1329.314331	407.630096	287.449188	1127.159424	703.725830	213.188828	1092.626099	170.244614	366.650101	916.761719	713.831024	397.153748	1010.901947	251.122498	369.134979	897.411255	523.436890	293.851990	927.951782	285.133667	199.357162	941.552002	510.959717	167.239044	941.178589	433.868439	183.298103	941.365295	472.414078	207.798859	1162.624756	465.289978	436.773468	1178.602417	380.213745	345.488708	636.351135	609.764038	360.854126	460.836182	516.265015	311.715515	262.903931	568.787109	289.795837	70.431709	494.628876	243.678680	57.444992	444.978394	413.643097	40.907829	465.425262	256.311279	704.488770	172.197403	278.010010	500.576599	192.514984	161.199646	330.918274	144.213776	143.394379	112.542519	175.975571	100.473679	106.829803	225.126968	261.553284	57.327740	190.040878
278	2.77000000	340.937103	1409.007080	599.712769	231.369858	1390.169067	266.480408	252.346527	1450.175781	446.510010	402.182434	1329.478882	408.862579	290.287445	1127.467896	705.422424	213.543579	1092.877197	172.555359	369.962601	917.151062	715.494080	397.822113	1011.082733	252.625824	371.635406	897.627930	524.994324	296.042816	928.782837	287.039490	201.985428	941.590698	512.871887	169.659317	941.227905	435.899841	185.822372	941.409302	474.385864	209.997269	1162.894531	467.518158	438.623566	1178.810547	381.387115	346.746277	636.164795	610.925842	361.172577	460.724121	517.420898	311.319427	262.842834	569.563110	289.702759	70.438530	494.909088	243.696487	57.502964	445.205292	413.581421	40.862427	465.805634	260.934937	705.987427	173.016830	284.221802	502.238800	192.085022	169.103729	331.799805	142.284073	153.519913	113.195595	172.452103	110.929253	106.348999	221.610138	272.503387	59.300465	185.060364
279	2.78000000	343.994446	1409.372925	601.232239	232.704483	1390.420532	268.435944	254.531342	1450.384399	448.306976	404.055389	1329.595459	410.055908	292.951019	1127.692017	707.108521	213.707916	1093.137573	174.777496	373.246628	917.505829	717.109863	398.402054	1011.275818	253.774582	374.228210	897.900818	526.538879	298.130157	929.567505	288.882477	204.481232	941.562439	514.703735	171.956284	941.196960	437.840729	188.218758	941.379700	476.272232	212.074936	1163.133545	469.697021	440.347290	1178.967407	382.513367	348.116669	636.008301	612.020264	361.576752	460.613861	518.506958	310.970337	262.788208	570.272522	289.615967	70.448021	495.177551	243.711273	57.565918	445.426117	413.523743	40.831173	466.206879	265.502014	707.455017	173.772949	290.670654	503.937195	191.631302	177.441147	332.588135	140.399918	164.435043	113.776306	168.933624	122.326454	105.633018	218.112732	284.398315	61.452587	179.965744
